<svg width="45" height="43" xmlns="http://www.w3.org/2000/svg"><path d="M8.104 8.264L23.802.388c1.22-.616 2.702-.105 3.31 1.13l.928 1.9-17.536 4.846zm27.76-2.861l.771 2.86H16.131l12.58-3.475 4.12-1.14c.218-.06.435-.09.653-.09a2.47 2.47 0 012.38 1.845zm5.81 7.11v6.826H27.012a4.138 4.138 0 00-3.003 1.285 4.26 4.26 0 00-1.191 2.96v5.562c0 2.345 1.882 4.25 4.199 4.25h14.655v6.976c0 1.38-1.106 2.5-2.47 2.5H2.696c-1.364 0-2.47-1.12-2.47-2.5V12.513a2.518 2.518 0 01.543-1.56 2.455 2.455 0 011.932-.94H39.21c1.363 0 2.47 1.12 2.464 2.5zm2.538 11.062v5.565a2.507 2.507 0 01-1.67 2.366 2.487 2.487 0 01-.8.135H27.019c-1.364 0-2.47-1.12-2.47-2.5v-5.566c0-1.38 1.106-2.5 2.47-2.5h14.725a2.453 2.453 0 011.665.656c.493.454.804 1.114.804 1.844zm-12.037 3.28v-.83c0-.69-.554-1.25-1.235-1.25h-.82c-.287 0-.549.105-.761.27a1.23 1.23 0 00-.474.98v.83c0 .69.553 1.25 1.235 1.25h.82c.681 0 1.235-.56 1.235-1.25z" fill="#fff"/></svg>