<svg width="51" height="48" xmlns="http://www.w3.org/2000/svg"><path d="M50.999 11.147v31.347c0 1.933-1.554 3.5-3.47 3.5H24.846l2.7-.71a4.669 4.669 0 002.867-2.184 4.743 4.743 0 00.495-3.59l-6.051-23.462c-.538-2.087-2.405-3.544-4.541-3.544a4.6 4.6 0 00-1.183.154l-3.088.81a3.593 3.593 0 00-2.442-.438 3.881 3.881 0 00-3.24-1.753c-.33 0-.66.043-1.02.138a3.866 3.866 0 00-2.375 1.81 3.908 3.908 0 00-.524 1.685 3.602 3.602 0 00-1.866 1.5v-5.168c0-1.038.476-2.412 1.058-3.149l5.575-7.055a2.767 2.767 0 012.17-1.054h28.814c.845 0 1.643.388 2.17 1.054l5.575 7.055c.582.737 1.059 2.111 1.059 3.054zm-2.881-3.113l-1.846-2.337H32.909l-.694-2.062h12.428L43.28 1.911a1.375 1.375 0 00-1.085-.528H13.38c-.424 0-.82.192-1.085.528l-1.363 1.724h12.21L21.9 5.697H9.304L7.458 8.034zm-39.54 7.662l-.006-.026a1.825 1.825 0 011.295-2.223l.04-.011a1.806 1.806 0 012.205 1.306l.006.025c.109.42.534.671.95.562l.778-.204a1.551 1.551 0 011.893 1.12l.008.031a1.566 1.566 0 01-1.111 1.91l-6.604 1.732a1.551 1.551 0 01-1.892-1.12l-.008-.03a1.566 1.566 0 011.11-1.91l.78-.204a.786.786 0 00.557-.958zm1.01-.27a.784.784 0 00.956.566.792.792 0 00.562-.964.783.783 0 10-1.517.397zm10.294 23.166a.527.527 0 01-.374.642l-9.607 2.521a.523.523 0 01-.637-.377l-.132-.51a.528.528 0 01.374-.643l9.607-2.52a.522.522 0 01.638.376zm1.172-10.11l.131.51a.527.527 0 01-.374.642l-13.146 3.45a.522.522 0 01-.638-.377l-.131-.51a.528.528 0 01.374-.643l13.147-3.45a.522.522 0 01.637.378zm-1.427-3.438l-13.146 3.45a.522.522 0 01-.638-.378l-.131-.51a.528.528 0 01.374-.642l13.147-3.45a.522.522 0 01.637.377l.131.51a.528.528 0 01-.374.643zm-.292 9.334L8.717 37.165a.522.522 0 01-.637-.378l-.132-.51a.528.528 0 01.374-.643l10.619-2.786a.522.522 0 01.637.377l.132.51a.527.527 0 01-.375.643zm7.688 8.874L9.325 47.896A2.61 2.61 0 016.14 46.01L.09 22.547a2.635 2.635 0 011.87-3.213l3.086-.81c.013.244.059.492.143.739.446 1.308 1.876 1.999 3.204 1.65l6.507-1.707c1.385-.364 2.22-1.797 1.851-3.226a2.659 2.659 0 00-.177-.481l3.083-.81a2.61 2.61 0 013.186 1.888l6.051 23.462c.363 1.408-.474 2.847-1.87 3.213zm-.658-2.55L21.103 20.3 3.406 24.944l5.261 20.402z" fill="#fff"/></svg>