<svg width="30" height="30" xmlns="http://www.w3.org/2000/svg"><path d="M30 15c0 8.27-6.729 15-15 15-8.272 0-15-6.73-15-15C0 6.729 6.728 0 15 0c8.271 0 15 6.729 15 15zm-7.095 9.672l-3.157-3.156C18.601 22.87 16.91 23.75 15 23.75a6.258 6.258 0 01-6.25-6.25c0-1.303.846-3.219 1.89-5.094L5.326 7.094A12.44 12.44 0 002.5 15c0 6.893 5.608 12.5 12.5 12.5a12.44 12.44 0 007.905-2.828zM15 21.25A.625.625 0 1015 20a2.503 2.503 0 01-2.5-2.5.625.625 0 10-1.25 0A3.754 3.754 0 0015 21.25zM27.5 15c0-6.893-5.608-12.5-12.5-12.5a12.44 12.44 0 00-7.905 2.827l4.865 4.865A62.672 62.672 0 0114.5 6.5c.236-.315.764-.315 1 0 .589.787 5.75 7.778 5.75 11 0 .597-.111 1.165-.27 1.713l3.693 3.692A12.438 12.438 0 0027.5 15z" fill="#fff"/></svg>