<?xml version="1.0" encoding="UTF-8"?>
<svg id="SVGDoc" width="45" height="43" xmlns="http://www.w3.org/2000/svg" version="1.1" xmlns:xlink="http://www.w3.org/1999/xlink" xmlns:avocode="https://avocode.com/" viewBox="0 0 45 43"><defs></defs><desc>Generated with Avocode.</desc><g><g><title>Forma 1</title><path d="M8.10359,8.26353l15.6982,-7.876c1.22017,-0.61563 2.70206,-0.10499 3.30963,1.12997l0.92869,1.90008l-17.53578,4.84595zM35.86444,5.40276l0.77065,2.86076h-20.50449l12.58129,-3.47593l4.11964,-1.13968c0.21732,-0.06059 0.43465,-0.09019 0.65208,-0.09019c1.08662,0 2.08443,0.72988 2.38083,1.84504zM41.67346,12.51327v6.82605h-14.6608c-0.168,0 -0.336,0.01018 -0.49896,0.03006c-0.97801,0.11517 -1.85234,0.57493 -2.50443,1.25531c-0.73597,0.76503 -1.19041,1.81035 -1.19041,2.96021v5.56102c0,2.34504 1.88198,4.25021 4.19872,4.25021h14.65588v6.97591c0,1.3802 -1.10641,2.50045 -2.46975,2.50045h-36.50906c-1.36333,0 -2.46975,-1.12025 -2.46975,-2.50045v-27.85877c0,-0.22433 0.03456,-0.44496 0.08892,-0.65495c0.08892,-0.33441 0.24696,-0.63968 0.45444,-0.90471c0.45444,-0.57493 1.15093,-0.93987 1.93142,-0.93987h36.50894c1.36333,0 2.46986,1.11979 2.46483,2.49952zM44.21245,23.57472v5.56565c0,0.72988 -0.31116,1.39037 -0.80509,1.8455c-0.24696,0.22988 -0.53844,0.4098 -0.86449,0.51989c-0.25188,0.08511 -0.51865,0.13506 -0.80017,0.13506h-14.72511c-1.36333,0 -2.46986,-1.12025 -2.46986,-2.50045v-5.56565c0,-1.3802 1.10653,-2.50045 2.46986,-2.50045h14.72511c0.28152,0 0.54829,0.05042 0.80017,0.13552c0.32604,0.11471 0.61752,0.29001 0.86449,0.52035c0.49393,0.45467 0.80509,1.1147 0.80509,1.84458zM32.17452,26.85546v-0.83025c0,-0.6901 -0.55321,-1.25022 -1.23493,-1.25022h-0.81997c-0.28645,0 -0.54829,0.10499 -0.76069,0.27012c-0.29137,0.22479 -0.47424,0.58002 -0.47424,0.98011v0.83025c0,0.68964 0.55332,1.25022 1.23493,1.25022h0.81997c0.68172,0 1.23493,-0.56059 1.23493,-1.25022z" fill="#ffffff" fill-opacity="1"></path></g></g></svg>