<?xml version="1.0" encoding="UTF-8"?>
<svg id="SVGDoc" width="30" height="30" xmlns="http://www.w3.org/2000/svg" version="1.1" xmlns:xlink="http://www.w3.org/1999/xlink" xmlns:avocode="https://avocode.com/" viewBox="0 0 30 30"><defs></defs><desc>Generated with Avocode.</desc><g><g><title>Forma 1</title><path d="M30,14.9999c0,8.27007 -6.72855,14.99945 -15,14.99945c-8.27156,0 -15,-6.72938 -15,-14.99945c0,-8.271 6.72844,-15.00038 15,-15.00038c8.27145,0 15,6.72938 15,15.00038zM22.90524,24.67237l-3.15685,-3.15678c-1.14727,1.35429 -2.83859,2.23403 -4.74838,2.23403c-3.44604,0 -6.24996,-2.80433 -6.24996,-6.2502c0,-1.30203 0.84629,-3.2183 1.88942,-5.09294l-5.31235,-5.31218c-1.76502,2.1554 -2.82715,4.90839 -2.82715,7.9056c0,6.89265 5.60795,12.49947 12.50004,12.49947c2.99686,0 5.7494,-1.06197 7.90524,-2.827zM15,21.24963c0.3455,0 0.62508,-0.27983 0.62508,-0.62488c0,-0.34551 -0.27958,-0.62534 -0.62508,-0.62534c-1.37821,0 -2.49996,-1.12118 -2.49996,-2.49999c0,-0.34551 -0.27958,-0.62488 -0.62508,-0.62488c-0.3455,0 -0.62496,0.27937 -0.62496,0.62488c0,2.06798 1.68205,3.75021 3.75,3.75021zM27.49992,14.9999c0,-6.89312 -5.60783,-12.50039 -12.49992,-12.50039c-2.99698,0 -5.74951,1.06197 -7.90535,2.827l4.86557,4.86584c1.17657,-1.85244 2.28493,-3.35243 2.53922,-3.69193c0.23678,-0.31591 0.76412,-0.31591 1.0009,0c0.58846,0.7863 5.74951,7.77794 5.74951,10.99901c0,0.59805 -0.11124,1.16558 -0.26894,1.71368l3.69186,3.69147c1.76502,-2.1554 2.82715,-4.90793 2.82715,-7.90467z" fill="#ffffff" fill-opacity="1"></path></g></g></svg>