<?xml version="1.0" encoding="UTF-8"?>
<svg id="SVGDoc" width="51" height="48" xmlns="http://www.w3.org/2000/svg" version="1.1" xmlns:xlink="http://www.w3.org/1999/xlink" xmlns:avocode="https://avocode.com/" viewBox="0 0 51 48"><defs></defs><desc>Generated with Avocode.</desc><g><g><title>Forma 1</title><path d="M50.99862,11.14695v31.34672c0,1.93292 -1.55319,3.49952 -3.46916,3.49952h-22.68368l2.70081,-0.7086c1.21353,-0.31822 2.23194,-1.09435 2.86686,-2.185c0.63423,-1.09065 0.81047,-2.36539 0.49461,-3.58971l-6.05152,-23.46148c-0.53799,-2.08694 -2.40486,-3.54392 -4.54056,-3.54392c-0.39848,0 -0.79617,0.05088 -1.18309,0.1531l-3.08784,0.80989c-0.53741,-0.31175 -1.15425,-0.49306 -1.80702,-0.49306c-0.21286,0 -0.42492,0.01943 -0.63492,0.05597c-0.70541,-1.07169 -1.91013,-1.75346 -3.23959,-1.75346c-0.33005,0 -0.65998,0.04302 -1.02047,0.13783c-1.00559,0.26364 -1.84914,0.90656 -2.37499,1.81035c-0.30361,0.52127 -0.48111,1.09435 -0.52448,1.68454c-0.77614,0.27012 -1.4233,0.79741 -1.86607,1.49999v-5.16787c0,-1.03746 0.47653,-2.41164 1.05892,-3.14846l5.57465,-7.055c0.52666,-0.66651 1.32557,-1.05457 2.17037,-1.05457h28.81313c0.84492,0 1.64383,0.38806 2.17037,1.05457l5.57476,7.055c0.58239,0.73681 1.05892,2.111 1.05892,3.05364zM48.11791,8.03365l-1.84616,-2.33671h-13.36258l-0.69386,-2.06151h12.42748l-1.36299,-1.72478c-0.2647,-0.33534 -0.66032,-0.52729 -1.08513,-0.52729h-28.81325c-0.4248,0 -0.82031,0.19195 -1.08513,0.52729l-1.36299,1.72478h12.20993l-1.24294,2.06151h-12.59594l-1.84616,2.33671zM8.5788,15.69595l-0.00652,-0.0259c-0.25143,-0.97409 0.3281,-1.96992 1.29433,-2.22339l0.0404,-0.01064c0.96634,-0.25347 1.95328,0.33071 2.2047,1.30573l0.00664,0.02544c0.10815,0.41952 0.53329,0.67113 0.9494,0.56198l0.77866,-0.20444c0.82935,-0.21739 1.67667,0.28446 1.8924,1.12072l0.0079,0.03099c0.21584,0.83672 -0.28164,1.69102 -1.11099,1.90887l-6.60381,1.73311c-0.82935,0.21739 -1.67656,-0.28446 -1.8924,-1.12072l-0.00801,-0.03053c-0.21572,-0.83672 0.28175,-1.69148 1.11111,-1.90887l0.77866,-0.20444c0.41611,-0.10916 0.6657,-0.53839 0.55756,-0.9579zM9.58863,15.42537c0.10895,0.42275 0.53696,0.67622 0.95581,0.5666c0.41885,-0.11055 0.67005,-0.54163 0.5611,-0.96438c-0.10883,-0.42229 -0.53684,-0.67576 -0.9557,-0.56614c-0.41885,0.10962 -0.67017,0.54163 -0.56122,0.96392zM19.88202,38.59175c0.07267,0.28122 -0.09476,0.56891 -0.37399,0.64246l-9.60732,2.52126c-0.27924,0.07308 -0.56454,-0.09621 -0.63721,-0.37789l-0.13149,-0.50971c-0.07267,-0.28168 0.09476,-0.56938 0.37411,-0.64292l9.6072,-2.5208c0.27935,-0.07354 0.56454,0.09528 0.63721,0.37696zM21.05378,28.48173l0.13161,0.51017c0.07256,0.28168 -0.09487,0.56938 -0.37411,0.64246l-13.14674,3.45003c-0.27924,0.07308 -0.56454,-0.09574 -0.63721,-0.37743l-0.13161,-0.50971c-0.07256,-0.28168 0.09487,-0.56984 0.37411,-0.64292l13.14674,-3.45003c0.27935,-0.07308 0.56454,0.09528 0.63721,0.37743zM19.62739,25.04419l-13.14674,3.45003c-0.27935,0.07308 -0.56454,-0.09574 -0.63721,-0.37789l-0.13161,-0.50971c-0.07256,-0.28168 0.09487,-0.56938 0.37411,-0.64292l13.14674,-3.44956c0.27935,-0.07354 0.56454,0.09574 0.63721,0.37696l0.13161,0.51017c0.07267,0.28168 -0.09487,0.56984 -0.37411,0.64292zM19.33545,34.37808l-10.61863,2.78676c-0.27924,0.07308 -0.56454,-0.09574 -0.63709,-0.37789l-0.13161,-0.50971c-0.07267,-0.28168 0.09487,-0.56938 0.37411,-0.64292l10.61852,-2.78583c0.27924,-0.07354 0.56454,0.09528 0.63721,0.37696l0.13161,0.51017c0.07256,0.28168 -0.09487,0.56938 -0.37411,0.64246zM27.02267,43.25222l-17.6976,4.64428c-1.39618,0.36633 -2.82257,-0.47826 -3.18592,-1.88667l-6.05095,-23.4624c-0.36324,-1.40841 0.47424,-2.84735 1.87054,-3.21367l3.08659,-0.80989c0.01293,0.24422 0.05836,0.49213 0.14236,0.73866c0.44586,1.30897 1.87592,1.99906 3.20423,1.65031l6.50665,-1.70721c1.38588,-0.36355 2.21981,-1.79647 1.85154,-3.22524c-0.04383,-0.16929 -0.10437,-0.32932 -0.17715,-0.4815l3.08338,-0.80897c1.39629,-0.36633 2.82269,0.47826 3.18592,1.88667l6.05095,23.46194c0.36312,1.40887 -0.47424,2.84735 -1.87054,3.21367zM26.36498,40.70182l-5.26176,-20.40136l-17.69749,4.64382l5.26165,20.40183z" fill="#ffffff" fill-opacity="1"></path></g></g></svg>